<svg width="32" height="32" viewBox="0 0 32 32" fill="none" xmlns="http://www.w3.org/2000/svg">
<path d="M11.3333 25.3334H10.6666C5.33329 25.3334 2.66663 24 2.66663 17.3334V10.6667C2.66663 5.33335 5.33329 2.66669 10.6666 2.66669H21.3333C26.6666 2.66669 29.3333 5.33335 29.3333 10.6667V17.3334C29.3333 22.6667 26.6666 25.3334 21.3333 25.3334H20.6666C20.2533 25.3334 19.8533 25.5334 19.6 25.8667L17.6 28.5334C16.72 29.7067 15.28 29.7067 14.4 28.5334L12.4 25.8667C12.1866 25.5734 11.6933 25.3334 11.3333 25.3334Z" stroke="#292D32" stroke-width="1.5" stroke-miterlimit="10" stroke-linecap="round" stroke-linejoin="round"/>
<path d="M21.3287 14.6667H21.3406" stroke="#292D32" stroke-width="2" stroke-linecap="round" stroke-linejoin="round"/>
<path d="M15.9939 14.6667H16.0059" stroke="#292D32" stroke-width="2" stroke-linecap="round" stroke-linejoin="round"/>
<path d="M10.6593 14.6667H10.6713" stroke="#292D32" stroke-width="2" stroke-linecap="round" stroke-linejoin="round"/>
</svg>
